<?xml version="1.0" encoding="UTF-8" standalone="no"?>
<!DOCTYPE svg PUBLIC "-//W3C//DTD SVG 1.1//EN" "http://www.w3.org/Graphics/SVG/1.1/DTD/svg11.dtd">
<svg width="100%" height="100%" viewBox="0 0 928 151" version="1.1" xmlns="http://www.w3.org/2000/svg" xmlns:xlink="http://www.w3.org/1999/xlink" xml:space="preserve" xmlns:serif="http://www.serif.com/" style="fill-rule:evenodd;clip-rule:evenodd;stroke-linejoin:round;stroke-miterlimit:2;">
    <g transform="matrix(1,0,0,1,-109,-110)">
        <g id="LF-LOGOTYPE" serif:id="LF LOGOTYPE" transform="matrix(0.37747,0,0,0.37747,-181.615,-569.767)">
            <path d="M3228.31,1836.79C3228.31,1817.21 3212.41,1801.31 3192.83,1801.31L807.174,1801.31C787.592,1801.31 771.694,1817.21 771.694,1836.79L771.694,2163.21C771.694,2182.79 787.592,2198.69 807.174,2198.69L3192.83,2198.69C3212.41,2198.69 3228.31,2182.79 3228.31,2163.21L3228.31,1836.79ZM3217.54,1836.79L3217.54,2163.21C3217.54,2176.85 3206.47,2187.93 3192.83,2187.93L807.174,2187.93C793.532,2187.93 782.456,2176.85 782.456,2163.21L782.456,1836.79C782.456,1823.15 793.532,1812.07 807.174,1812.07L3192.83,1812.07C3206.47,1812.07 3217.54,1823.15 3217.54,1836.79ZM1188.07,1842.53C1269.68,1842.53 1335.9,1903.38 1335.9,1999C1335.9,2094.63 1269.68,2155.48 1188.07,2155.48C1106.51,2155.48 1040.3,2094.63 1040.3,1999C1040.3,1903.38 1106.51,1842.53 1188.07,1842.53ZM2482.78,1842.53C2564.39,1842.53 2630.61,1903.38 2630.61,1999C2630.61,2094.63 2564.39,2155.48 2482.78,2155.48C2401.22,2155.48 2335.01,2094.63 2335.01,1999C2335.01,1903.38 2401.22,1842.53 2482.78,1842.53ZM1643.74,1857.81C1643.74,1858.38 1643.97,1858.94 1644.37,1859.35C1644.78,1859.75 1645.34,1859.98 1645.91,1859.98L1648.09,1859.98C1657.69,1859.98 1665.47,1867.76 1665.47,1877.37L1665.47,2120.75C1665.47,2130.36 1657.69,2138.14 1648.09,2138.14L1645.91,2138.14C1645.34,2138.14 1644.78,2138.36 1644.37,2138.77C1643.97,2139.18 1643.74,2139.73 1643.74,2140.31L1643.74,2149.01C1643.74,2150.22 1644.71,2151.19 1645.91,2151.19C1666.66,2151.21 1829.73,2151.37 1856.72,2151.39C1857.87,2151.4 1858.98,2150.94 1859.8,2150.12C1860.61,2149.31 1861.07,2148.2 1861.07,2147.05L1861.07,2088.18C1861.07,2086.97 1860.1,2086 1858.9,2086L1850.2,2086C1849,2086 1848.03,2086.97 1848.03,2088.18L1848.03,2090.35C1848.03,2100.77 1843.89,2110.76 1836.52,2118.11C1829.15,2125.48 1819.15,2129.6 1808.74,2129.59C1780.76,2129.55 1741.89,2129.51 1721.92,2129.48C1714.75,2129.47 1708.94,2123.66 1708.94,2116.49L1708.94,2003.42C1708.94,2002.26 1709.4,2001.16 1710.21,2000.34C1711.03,1999.53 1712.13,1999.07 1713.29,1999.07L1808.91,1999.07C1813.52,1999.07 1817.94,2000.9 1821.2,2004.16C1824.46,2007.42 1826.3,2011.84 1826.3,2016.46L1826.3,2018.63C1826.3,2019.83 1827.27,2020.8 1828.47,2020.8L1837.16,2020.8C1838.36,2020.8 1839.34,2019.83 1839.34,2018.63L1839.34,1957.78C1839.34,1956.58 1838.36,1955.6 1837.16,1955.6L1828.47,1955.6C1827.27,1955.6 1826.3,1956.58 1826.3,1957.78L1826.3,1959.95C1826.3,1969.56 1818.52,1977.34 1808.91,1977.34L1713.29,1977.34C1712.13,1977.34 1711.03,1976.88 1710.21,1976.06C1709.4,1975.25 1708.94,1974.14 1708.94,1972.99L1708.94,1881.74C1708.94,1874.52 1714.79,1868.67 1722,1868.67L1817.6,1868.67C1824.52,1868.67 1831.15,1871.42 1836.04,1876.31C1840.94,1881.2 1843.68,1887.84 1843.68,1894.75L1843.68,1896.92C1843.68,1898.12 1844.66,1899.1 1845.86,1899.1L1854.55,1899.1C1855.75,1899.1 1856.72,1898.12 1856.72,1896.92L1856.72,1851.29C1856.72,1850.13 1856.26,1849.03 1855.45,1848.21C1854.63,1847.4 1853.53,1846.94 1852.38,1846.94C1784,1846.93 1663.53,1846.93 1645.91,1846.93C1644.71,1846.93 1643.74,1847.9 1643.74,1849.1L1643.74,1857.81ZM2686.73,1848.25C2685.89,1847.27 2684.7,1846.7 2683.39,1846.7L2635.42,1846.7C2634.22,1846.7 2633.25,1847.67 2633.25,1848.88L2633.25,1857.57C2633.25,1858.77 2634.22,1859.74 2635.42,1859.74L2637.6,1859.74C2642.19,1859.74 2646.61,1861.58 2649.89,1864.84C2653.17,1868.1 2654.98,1872.52 2654.98,1877.13L2654.98,2120.71C2654.98,2125.32 2653.17,2129.74 2649.89,2133C2646.61,2136.26 2642.19,2138.09 2637.6,2138.09L2635.42,2138.09C2634.22,2138.09 2633.25,2139.07 2633.25,2140.27L2633.25,2148.96C2633.25,2150.16 2634.22,2151.13 2635.42,2151.13L2696.3,2151.13C2697.49,2151.13 2698.45,2150.16 2698.45,2148.96L2698.45,2140.27C2698.45,2139.07 2697.49,2138.09 2696.3,2138.09L2694.09,2138.09C2689.56,2138.09 2685.21,2136.29 2681.98,2133.07C2678.75,2129.86 2676.94,2125.5 2676.94,2120.95L2676.94,1909.34C2676.94,1908.42 2677.51,1907.61 2678.41,1907.3C2679.26,1906.99 2680.22,1907.24 2680.79,1907.94C2707.79,1940.03 2868.24,2130.93 2884.09,2149.8C2884.88,2150.75 2886.07,2151.3 2887.31,2151.3L2890.08,2151.3C2891.22,2151.3 2892.29,2150.86 2893.08,2150.07C2893.88,2149.28 2894.27,2148.21 2894.27,2147.09L2894.27,1876.88C2894.27,1872.33 2896.08,1867.98 2899.31,1864.76C2902.53,1861.55 2906.89,1859.74 2911.42,1859.74L2913.63,1859.74C2914.82,1859.74 2915.78,1858.77 2915.78,1857.57L2915.78,1848.88C2915.78,1847.67 2914.82,1846.7 2913.63,1846.7L2852.73,1846.7C2851.54,1846.7 2850.58,1847.67 2850.58,1848.88L2850.58,1857.57C2850.58,1858.77 2851.54,1859.74 2852.73,1859.74L2854.94,1859.74C2864.5,1859.74 2872.31,1867.52 2872.31,1877.13L2872.31,2062.59C2872.31,2063.51 2871.75,2064.32 2870.9,2064.64C2870.05,2064.95 2869.09,2064.69 2868.46,2064C2843.28,2034.07 2701.79,1866.15 2686.73,1848.25ZM1396.37,1848.25C1395.52,1847.27 1394.33,1846.7 1393.03,1846.7L1345.06,1846.7C1343.86,1846.7 1342.89,1847.67 1342.89,1848.88L1342.89,1857.57C1342.89,1858.77 1343.86,1859.74 1345.06,1859.74L1347.23,1859.74C1351.83,1859.74 1356.24,1861.58 1359.53,1864.84C1362.81,1868.1 1364.62,1872.52 1364.62,1877.13L1364.62,2120.71C1364.62,2125.32 1362.81,2129.74 1359.53,2133C1356.24,2136.26 1351.83,2138.09 1347.23,2138.09L1345.06,2138.09C1343.86,2138.09 1342.89,2139.07 1342.89,2140.27L1342.89,2148.96C1342.89,2150.16 1343.86,2151.13 1345.06,2151.13L1405.94,2151.13C1407.12,2151.13 1408.09,2150.16 1408.09,2148.96L1408.09,2140.27C1408.09,2139.07 1407.12,2138.09 1405.94,2138.09L1403.73,2138.09C1399.2,2138.09 1394.84,2136.29 1391.62,2133.07C1388.39,2129.86 1386.58,2125.5 1386.58,2120.95L1386.58,1909.34C1386.58,1908.42 1387.15,1907.61 1388.05,1907.3C1388.9,1906.99 1389.86,1907.24 1390.43,1907.94C1417.42,1940.03 1577.87,2130.93 1593.72,2149.8C1594.51,2150.75 1595.7,2151.3 1596.95,2151.3L1599.72,2151.3C1600.85,2151.3 1601.93,2150.86 1602.72,2150.07C1603.51,2149.28 1603.91,2148.21 1603.91,2147.09L1603.91,1876.88C1603.91,1872.33 1605.72,1867.98 1608.95,1864.76C1612.17,1861.55 1616.53,1859.74 1621.06,1859.74L1623.27,1859.74C1624.45,1859.74 1625.41,1858.77 1625.41,1857.57L1625.41,1848.88C1625.41,1847.67 1624.45,1846.7 1623.27,1846.7L1562.37,1846.7C1561.18,1846.7 1560.22,1847.67 1560.22,1848.88L1560.22,1857.57C1560.22,1858.77 1561.18,1859.74 1562.37,1859.74L1564.57,1859.74C1574.14,1859.74 1581.95,1867.52 1581.95,1877.13L1581.95,2062.59C1581.95,2063.51 1581.38,2064.32 1580.53,2064.64C1579.69,2064.95 1578.72,2064.69 1578.1,2064C1552.92,2034.07 1411.42,1866.15 1396.37,1848.25ZM2933.67,1909.91C2933.67,1910.49 2933.89,1911.04 2934.29,1911.45C2934.74,1911.86 2935.25,1912.08 2935.88,1912.08L2944.53,1912.08C2945.72,1912.08 2946.74,1911.11 2946.74,1909.91L2946.74,1907.93C2946.74,1886.33 2964.23,1868.81 2985.85,1868.81L3033.67,1868.81C3036.05,1868.81 3037.97,1870.76 3037.97,1873.15L3037.97,2120.91C3037.97,2130.51 3030.22,2138.3 3020.6,2138.3L3018.45,2138.3C3017.26,2138.3 3016.24,2139.27 3016.24,2140.47L3016.24,2149.03C3016.24,2150.23 3017.26,2151.2 3018.45,2151.2L3101.02,2151.2C3102.21,2151.2 3103.17,2150.23 3103.17,2149.03L3103.17,2140.47C3103.17,2139.27 3102.21,2138.3 3101.02,2138.3L3098.87,2138.3C3089.25,2138.3 3081.44,2130.51 3081.44,2120.91L3081.44,1873.15C3081.44,1870.76 3083.42,1868.81 3085.8,1868.81L3133.62,1868.81C3155.24,1868.81 3172.73,1886.33 3172.73,1907.93L3172.73,1910.02C3172.73,1911.22 3173.69,1912.19 3174.94,1912.19L3183.6,1912.19C3184.79,1912.19 3185.81,1911.22 3185.81,1910.02L3185.81,1851.25C3185.81,1848.85 3183.82,1846.9 3181.45,1846.9L2938.03,1846.9C2936.89,1846.9 2935.76,1847.36 2934.97,1848.18C2934.12,1848.99 2933.67,1850.1 2933.67,1851.25L2933.67,1909.91ZM2357.98,2138.04L2355.83,2138.04C2345.02,2138.04 2335,2132.6 2329.06,2123.58C2329.06,2123.58 2269.24,2032.5 2257.75,2015C2257.35,2014.38 2257.3,2013.59 2257.58,2012.92C2257.92,2012.25 2258.54,2011.77 2259.28,2011.66C2296.46,2005.97 2321.08,1976.05 2321.08,1933.97C2321.08,1881.81 2286.27,1846.87 2221.08,1846.87L2114.62,1846.87C2113.99,1846.87 2113.49,1847.1 2113.03,1847.51C2112.64,1847.92 2112.41,1848.47 2112.41,1849.05L2112.41,1857.73C2112.41,1858.3 2112.64,1858.86 2113.03,1859.27C2113.49,1859.67 2113.99,1859.91 2114.62,1859.91L2116.77,1859.91C2126.39,1859.91 2134.14,1867.69 2134.14,1877.29L2134.14,2120.72C2134.14,2130.32 2126.39,2138.1 2116.77,2138.1L2114.62,2138.1C2113.99,2138.1 2113.49,2138.33 2113.03,2138.74C2112.64,2139.14 2112.41,2139.7 2112.41,2140.28L2112.41,2148.96C2112.41,2149.54 2112.64,2150.09 2113.03,2150.5C2113.49,2150.91 2113.99,2151.13 2114.62,2151.13L2197.19,2151.13C2197.76,2151.13 2198.32,2150.91 2198.72,2150.5C2199.12,2150.09 2199.34,2149.54 2199.34,2148.96L2199.34,2140.28C2199.34,2139.7 2199.12,2139.14 2198.72,2138.74C2198.32,2138.33 2197.76,2138.1 2197.19,2138.1L2194.98,2138.1C2185.42,2138.1 2177.61,2130.32 2177.61,2120.72C2177.61,2120.72 2177.66,2036.47 2177.66,2016.39C2177.66,2014.01 2179.59,2012.07 2181.97,2012.04C2186.27,2011.99 2193.29,2012.02 2198.95,2012.01C2201.95,2011.99 2204.66,2013.47 2206.3,2015.93C2218.75,2034.96 2272.86,2117.37 2289.84,2143.33C2293.07,2148.23 2298.55,2151.19 2304.44,2151.18C2320.12,2151.17 2350.74,2151.13 2357.98,2151.13C2359.23,2151.13 2360.19,2150.16 2360.19,2148.96L2360.19,2140.21C2360.19,2139 2359.23,2138.04 2357.98,2138.04ZM1961.95,2138.17C1957.34,2138.17 1952.91,2136.34 1949.65,2133.08C1946.39,2129.82 1944.56,2125.4 1944.56,2120.78L1944.56,2003.43C1944.56,2002.27 1945.02,2001.17 1945.84,2000.35C1946.65,1999.54 1947.75,1999.08 1948.91,1999.08L2044.53,1999.08C2049.14,1999.08 2053.57,2000.91 2056.82,2004.17C2060.09,2007.43 2061.92,2011.86 2061.92,2016.47L2061.92,2018.64C2061.92,2019.22 2062.14,2019.77 2062.55,2020.17C2062.96,2020.58 2063.51,2020.81 2064.09,2020.81L2072.78,2020.81C2073.99,2020.81 2074.96,2019.84 2074.96,2018.64L2074.96,1957.79C2074.96,1956.59 2073.99,1955.62 2072.78,1955.62L2064.09,1955.62C2062.89,1955.62 2061.92,1956.59 2061.92,1957.79L2061.92,1959.96C2061.92,1969.56 2054.14,1977.35 2044.53,1977.35L1948.91,1977.35C1947.75,1977.35 1946.65,1976.89 1945.84,1976.08C1945.02,1975.26 1944.56,1974.16 1944.56,1973L1944.56,1881.72C1944.56,1874.52 1950.4,1868.68 1957.6,1868.68L2053.23,1868.68C2060.14,1868.68 2066.78,1871.43 2071.66,1876.32C2076.56,1881.21 2079.3,1887.85 2079.3,1894.76L2079.3,1896.94C2079.3,1898.14 2080.28,1899.11 2081.48,1899.11L2090.17,1899.11C2091.37,1899.11 2092.35,1898.14 2092.35,1896.94L2092.35,1851.3C2092.35,1848.9 2090.4,1846.95 2088,1846.95C2062,1846.95 1902.1,1846.94 1881.55,1846.94C1880.98,1846.94 1880.42,1847.17 1880.01,1847.57C1879.61,1847.98 1879.38,1848.54 1879.38,1849.11L1879.38,1857.82C1879.38,1859.01 1880.34,1859.99 1881.54,1859.99L1883.71,1860C1893.33,1860.04 1901.1,1867.85 1901.1,1877.47C1901.1,1927.37 1901.11,2070.68 1901.11,2120.59C1901.11,2130.21 1893.33,2138.01 1883.71,2138.02L1881.55,2138.02C1880.35,2138.02 1879.38,2139 1879.38,2140.2L1879.38,2149C1879.38,2149.58 1879.61,2150.13 1880.01,2150.54C1880.42,2150.95 1880.98,2151.18 1881.55,2151.18L1964.12,2151.18C1965.32,2151.18 1966.29,2150.2 1966.29,2149L1966.29,2140.35C1966.29,2139.14 1965.32,2138.17 1964.12,2138.17L1961.95,2138.17ZM813.786,2138.09C812.586,2138.09 811.613,2139.07 811.613,2140.27L811.613,2148.96C811.613,2149.54 811.839,2150.09 812.246,2150.5C812.654,2150.91 813.209,2151.13 813.786,2151.13C834.958,2151.13 1004.09,2151.12 1024.59,2151.13C1025.74,2151.13 1026.85,2150.68 1027.67,2149.86C1028.48,2149.04 1028.94,2147.94 1028.94,2146.79L1028.94,2087.91C1028.94,2086.71 1027.97,2085.74 1026.77,2085.74L1018.08,2085.74C1016.88,2085.74 1015.9,2086.71 1015.9,2087.91L1015.9,2090.09C1015.9,2100.5 1011.76,2110.49 1004.39,2117.85C997.021,2125.21 987.026,2129.34 976.607,2129.33C948.632,2129.29 909.756,2129.24 889.789,2129.22C882.618,2129.21 876.811,2123.39 876.811,2116.22L876.811,1877.3C876.811,1872.68 878.645,1868.27 881.905,1865.01C885.165,1861.75 889.585,1859.91 894.192,1859.91L896.371,1859.91C897.571,1859.91 898.544,1858.94 898.544,1857.74L898.544,1849.05C898.544,1847.85 897.571,1846.87 896.371,1846.87L813.786,1846.87C812.586,1846.87 811.613,1847.85 811.613,1849.05L811.613,1857.74C811.613,1858.94 812.586,1859.91 813.786,1859.91L815.959,1859.91C825.563,1859.91 833.345,1867.69 833.345,1877.3L833.345,2120.71C833.345,2125.32 831.512,2129.74 828.252,2133C824.992,2136.26 820.572,2138.09 815.959,2138.09L813.786,2138.09ZM2482.78,1864.26C2404.56,1864.26 2382.83,1934.23 2382.83,1999C2382.83,2063.78 2400.2,2133.75 2482.78,2133.75L2483.74,2133.74C2565.54,2133.2 2582.78,2063.52 2582.78,1999C2582.78,1934.49 2561.22,1864.8 2483.69,1864.26L2482.78,1864.26ZM1188.07,1864.26C1109.85,1864.26 1088.12,1934.23 1088.12,1999C1088.12,2063.78 1105.49,2133.75 1188.07,2133.75L1189.03,2133.74C1270.83,2133.2 1288.07,2063.52 1288.07,1999C1288.07,1934.49 1266.51,1864.8 1188.98,1864.26L1188.07,1864.26ZM1183.72,1995.62L1183.72,1941.34C1183.72,1940.13 1184.7,1939.15 1185.91,1939.15L1190.28,1939.15C1191.49,1939.15 1192.47,1940.13 1192.47,1941.34L1192.47,1995.62L1246.76,1995.62C1247.97,1995.62 1248.95,1996.61 1248.95,1997.81L1248.95,2002.19C1248.95,2003.39 1247.97,2004.38 1246.76,2004.38L1192.47,2004.38L1192.47,2058.66C1192.47,2059.87 1191.49,2060.85 1190.28,2060.85L1185.91,2060.85C1184.7,2060.85 1183.72,2059.87 1183.72,2058.66L1183.72,2004.38L1129.43,2004.38C1128.22,2004.38 1127.24,2003.39 1127.24,2002.19L1127.24,1997.81C1127.24,1996.61 1128.22,1995.62 1129.43,1995.62L1183.72,1995.62ZM2477.85,1995.62L2477.85,1941.34C2477.85,1940.13 2478.83,1939.15 2480.03,1939.15L2484.41,1939.15C2485.62,1939.15 2486.6,1940.13 2486.6,1941.34L2486.6,1995.62L2540.89,1995.62C2542.09,1995.62 2543.07,1996.61 2543.07,1997.81L2543.07,2002.19C2543.07,2003.39 2542.09,2004.38 2540.89,2004.38L2486.6,2004.38L2486.6,2058.66C2486.6,2059.87 2485.62,2060.85 2484.41,2060.85L2480.03,2060.85C2478.83,2060.85 2477.85,2059.87 2477.85,2058.66L2477.85,2004.38L2423.56,2004.38C2422.35,2004.38 2421.37,2003.39 2421.37,2002.19L2421.37,1997.81C2421.37,1996.61 2422.35,1995.62 2423.56,1995.62L2477.85,1995.62ZM2199.34,1990.48L2181.97,1990.48C2179.59,1990.48 2177.61,1988.53 2177.61,1986.13L2177.61,1873.12C2177.61,1870.72 2179.59,1868.77 2181.97,1868.77L2199.34,1868.77C2225.43,1868.77 2273.31,1868.11 2273.26,1933.97C2273.2,1990.48 2229.79,1990.48 2199.34,1990.48Z" style="fill:white;fill-rule:nonzero;"/>
        </g>
    </g>
</svg>
