<?xml version="1.0" encoding="UTF-8" standalone="no"?><!DOCTYPE svg PUBLIC "-//W3C//DTD SVG 1.1//EN" "http://www.w3.org/Graphics/SVG/1.1/DTD/svg11.dtd"><svg width="100%" height="100%" viewBox="0 0 80 88" version="1.1" xmlns="http://www.w3.org/2000/svg" xmlns:xlink="http://www.w3.org/1999/xlink" xml:space="preserve" xmlns:serif="http://www.serif.com/" style="fill-rule:evenodd;clip-rule:evenodd;stroke-linejoin:round;stroke-miterlimit:2;"><g id="LF-SIGIL" serif:id="LF SIGIL"><path d="M58.451,25.136c0,0.445 0.19,0.873 0.517,1.176c0.333,0.303 0.772,0.458 1.218,0.416c18.21,-1.473 2.62,-26.558 21.08,-26.558l1.099,0c0.446,0 0.802,0.357 0.802,0.802l0,0.398c0,0.416 -0.326,0.767 -0.742,0.796c-7.807,1.456 5.121,27.479 -22.441,28.4c-0.85,0.036 -1.521,0.737 -1.521,1.587c-0.012,2.828 -0.012,8.698 -0.012,10.89c0,0.565 0.149,1.111 0.428,1.598c4.408,7.683 41.839,72.836 49.527,86.222c0.285,0.493 0.285,1.099 0,1.598c-0.285,0.493 -0.814,0.796 -1.384,0.796l-104.747,0c-0.57,0 -1.099,-0.303 -1.384,-0.796c-0.285,-0.499 -0.285,-1.105 0,-1.598c7.682,-13.38 45.095,-78.51 49.527,-86.216c0.28,-0.493 0.428,-1.045 0.428,-1.61l0,-10.884c0,-0.856 -0.671,-1.563 -1.527,-1.599c-27.568,-0.909 -14.639,-26.932 -22.446,-28.417c-0.404,-0.03 -0.713,-0.363 -0.713,-0.767c-0.03,-0.142 -0.03,-0.279 -0.03,-0.398c0,-0.445 0.357,-0.802 0.802,-0.802l1.099,0c18.46,0 2.87,25.085 21.08,26.552c0.44,0.036 0.88,-0.113 1.212,-0.416c0.327,-0.297 0.517,-0.725 0.517,-1.17c0.006,-5.341 0.006,-17.361 0.006,-17.361c0,-3.945 -3,-5.508 -6.838,-5.686c-0.428,-0.018 -0.767,-0.368 -0.767,-0.796l0,-0.321c0,-0.445 0.357,-0.802 0.802,-0.802l21.211,0c0.446,0 0.802,0.357 0.802,0.802l0,0.321c0,0.428 -0.339,0.778 -0.766,0.796c-3.838,0.178 -6.839,1.741 -6.839,5.686l0,17.361Zm-44.233,98.11c-0.286,0.499 -0.286,1.105 -0,1.604c0.285,0.493 0.814,0.802 1.384,0.802l19.963,0c0.339,0 0.636,-0.208 0.755,-0.523c0.112,-0.315 0.023,-0.665 -0.232,-0.885c-5.312,-4.7 -8.924,-11.39 -9.768,-18.941c-0.03,-0.339 -0.285,-0.624 -0.618,-0.695c-0.338,-0.072 -0.683,0.077 -0.855,0.374c-2.525,4.325 -8.039,13.808 -10.629,18.264Zm70.256,-18.412c-0.172,-0.298 -0.522,-0.452 -0.861,-0.381c-0.345,0.078 -0.594,0.363 -0.63,0.713c-0.808,7.605 -4.432,14.349 -9.767,19.084c-0.256,0.214 -0.345,0.564 -0.232,0.879c0.119,0.309 0.416,0.517 0.748,0.517c4.563,0.006 14.985,0.006 19.975,0.006c0.571,0 1.099,-0.303 1.385,-0.802c0.285,-0.493 0.285,-1.105 -0,-1.598c-2.579,-4.474 -8.092,-14.034 -10.618,-18.418Zm-10.546,-0.143c0.149,0.315 0.488,0.487 0.826,0.434c0.345,-0.06 0.606,-0.333 0.648,-0.678c0.113,-0.837 0.16,-1.693 0.16,-2.56c0,-12.067 -9.369,-21.865 -20.913,-21.865c-11.544,0 -20.914,9.798 -20.914,21.865c0,10.878 7.617,19.909 17.569,21.585c0.344,0.041 0.677,-0.149 0.814,-0.464c0.142,-0.321 0.047,-0.689 -0.22,-0.915c-2.977,-2.62 -4.854,-6.464 -4.854,-10.748c-0,-7.896 6.387,-14.307 14.259,-14.307c5.472,0 10.237,3.102 12.625,7.653Zm-12.625,-1.949c4.723,0 8.556,3.838 8.556,8.556c-0,4.723 -3.833,8.555 -8.556,8.555c-4.723,0 -8.556,-3.832 -8.556,-8.555c0,-4.718 3.833,-8.556 8.556,-8.556Zm-18.05,-29.439c-0.172,0.297 -0.131,0.671 0.095,0.932c0.226,0.256 0.594,0.339 0.909,0.208c3.22,-1.307 6.726,-2.026 10.392,-2.026c3.79,0 7.409,0.767 10.718,2.157c0.315,0.137 0.683,0.054 0.909,-0.202c0.232,-0.255 0.267,-0.63 0.095,-0.927c-2.418,-4.206 -7.664,-13.308 -10.166,-17.646c-0.285,-0.493 -0.814,-0.802 -1.384,-0.802c-0.57,0 -1.099,0.303 -1.384,0.796c-2.514,4.32 -7.766,13.357 -10.184,17.51Z" style="fill:#f00;"/></g></svg>