<?xml version="1.0" encoding="UTF-8" standalone="no"?>
<!DOCTYPE svg PUBLIC "-//W3C//DTD SVG 1.1//EN" "http://www.w3.org/Graphics/SVG/1.1/DTD/svg11.dtd">
<svg width="100%" height="100%" viewBox="0 0 109 134" version="1.1" xmlns="http://www.w3.org/2000/svg" xmlns:xlink="http://www.w3.org/1999/xlink" xml:space="preserve" xmlns:serif="http://www.serif.com/" style="fill-rule:evenodd;clip-rule:evenodd;stroke-linejoin:round;stroke-miterlimit:2;">
    <g transform="matrix(1,0,0,1,-3781,-110)">
        <g id="LF-SIGIL" serif:id="LF SIGIL" transform="matrix(0.594138,0,0,0.594138,879.218,-1543.91)">
            <path d="M4982.4,2826.02C4982.4,2826.77 4982.72,2827.49 4983.27,2828C4983.83,2828.51 4984.57,2828.77 4985.32,2828.7C5015.97,2826.22 4989.73,2784 5020.8,2784L5022.65,2784C5023.4,2784 5024,2784.6 5024,2785.35L5024,2786.02C5024,2786.72 5023.45,2787.31 5022.75,2787.36C5009.61,2789.81 5031.37,2833.61 4984.98,2835.16C4983.55,2835.22 4982.42,2836.4 4982.42,2837.83C4982.4,2842.59 4982.4,2852.47 4982.4,2856.16C4982.4,2857.11 4982.65,2858.03 4983.12,2858.85C4990.54,2871.78 5053.54,2981.44 5066.48,3003.97C5066.96,3004.8 5066.96,3005.82 5066.48,3006.66C5066,3007.49 5065.11,3008 5064.15,3008L4887.85,3008C4886.89,3008 4886,3007.49 4885.52,3006.66C4885.04,3005.82 4885.04,3004.8 4885.52,3003.97C4898.45,2981.45 4961.42,2871.83 4968.88,2858.86C4969.35,2858.03 4969.6,2857.1 4969.6,2856.15L4969.6,2837.83C4969.6,2836.39 4968.47,2835.2 4967.03,2835.14C4920.63,2833.61 4942.39,2789.81 4929.25,2787.31C4928.57,2787.26 4928.05,2786.7 4928.05,2786.02C4928,2785.78 4928,2785.55 4928,2785.35C4928,2784.6 4928.6,2784 4929.35,2784L4931.2,2784C4962.27,2784 4936.03,2826.22 4966.68,2828.69C4967.42,2828.75 4968.16,2828.5 4968.72,2827.99C4969.27,2827.49 4969.59,2826.77 4969.59,2826.02C4969.6,2817.03 4969.6,2796.8 4969.6,2796.8C4969.6,2790.16 4964.55,2787.53 4958.09,2787.23C4957.37,2787.2 4956.8,2786.61 4956.8,2785.89L4956.8,2785.35C4956.8,2784.6 4957.4,2784 4958.15,2784L4993.85,2784C4994.6,2784 4995.2,2784.6 4995.2,2785.35L4995.2,2785.89C4995.2,2786.61 4994.63,2787.2 4993.91,2787.23C4987.45,2787.53 4982.4,2790.16 4982.4,2796.8L4982.4,2826.02ZM4907.95,2991.15C4907.47,2991.99 4907.47,2993.01 4907.95,2993.85C4908.43,2994.68 4909.32,2995.2 4910.28,2995.2L4943.88,2995.2C4944.45,2995.2 4944.95,2994.85 4945.15,2994.32C4945.34,2993.79 4945.19,2993.2 4944.76,2992.83C4935.82,2984.92 4929.74,2973.66 4928.32,2960.95C4928.27,2960.38 4927.84,2959.9 4927.28,2959.78C4926.71,2959.66 4926.13,2959.91 4925.84,2960.41C4921.59,2967.69 4912.31,2983.65 4907.95,2991.15ZM5026.2,2960.16C5025.91,2959.66 5025.32,2959.4 5024.75,2959.52C5024.17,2959.65 5023.75,2960.13 5023.69,2960.72C5022.33,2973.52 5016.23,2984.87 5007.25,2992.84C5006.82,2993.2 5006.67,2993.79 5006.86,2994.32C5007.06,2994.84 5007.56,2995.19 5008.12,2995.19C5015.8,2995.2 5033.34,2995.2 5041.74,2995.2C5042.7,2995.2 5043.59,2994.69 5044.07,2993.85C5044.55,2993.02 5044.55,2991.99 5044.07,2991.16C5039.73,2983.63 5030.45,2967.54 5026.2,2960.16ZM5008.45,2959.92C5008.7,2960.45 5009.27,2960.74 5009.84,2960.65C5010.42,2960.55 5010.86,2960.09 5010.93,2959.51C5011.12,2958.1 5011.2,2956.66 5011.2,2955.2C5011.2,2934.89 4995.43,2918.4 4976,2918.4C4956.57,2918.4 4940.8,2934.89 4940.8,2955.2C4940.8,2973.51 4953.62,2988.71 4970.37,2991.53C4970.95,2991.6 4971.51,2991.28 4971.74,2990.75C4971.98,2990.21 4971.82,2989.59 4971.37,2989.21C4966.36,2984.8 4963.2,2978.33 4963.2,2971.12C4963.2,2957.83 4973.95,2947.04 4987.2,2947.04C4996.41,2947.04 5004.43,2952.26 5008.45,2959.92ZM4987.2,2956.64C4995.15,2956.64 5001.6,2963.1 5001.6,2971.04C5001.6,2978.99 4995.15,2985.44 4987.2,2985.44C4979.25,2985.44 4972.8,2978.99 4972.8,2971.04C4972.8,2963.1 4979.25,2956.64 4987.2,2956.64ZM4956.82,2907.09C4956.53,2907.59 4956.6,2908.22 4956.98,2908.66C4957.36,2909.09 4957.98,2909.23 4958.51,2909.01C4963.93,2906.81 4969.83,2905.6 4976,2905.6C4982.38,2905.6 4988.47,2906.89 4994.04,2909.23C4994.57,2909.46 4995.19,2909.32 4995.57,2908.89C4995.96,2908.46 4996.02,2907.83 4995.73,2907.33C4991.66,2900.25 4982.83,2884.93 4978.62,2877.63C4978.14,2876.8 4977.25,2876.28 4976.29,2876.28C4975.33,2876.28 4974.44,2876.79 4973.96,2877.62C4969.73,2884.89 4960.89,2900.1 4956.82,2907.09Z" style="fill:rgb(255,0,0);"/>
        </g>
    </g>
</svg>
